<?xml version="1.0" encoding="utf-8"?>
<!-- Generator: Adobe Illustrator 22.1.0, SVG Export Plug-In . SVG Version: 6.00 Build 0)  -->
<svg version="1.1" id="Слой_1" xmlns="http://www.w3.org/2000/svg" xmlns:xlink="http://www.w3.org/1999/xlink" x="0px" y="0px"
	 viewBox="0 0 378.4 47.4" style="enable-background:new 0 0 378.4 47.4;" xml:space="preserve">
<style type="text/css">
	.st0{fill:#13335A;}
</style>
<g transform="translate(0.000000,100.000000) scale(0.100000,-0.100000)">
	<path class="st0" d="M365.4,987.3c-23.2-9.3-37.1-29-60.2-92.7c-16.2-45.2-30.1-83.4-30.1-86.9c0-3.5,19.7,15.1,44,41.7
		c32.4,33.6,54.4,46.3,78.8,46.3c40.5,0,62.5-18.5,62.5-52.1c0-40.5-70.6-265.2-90.3-286.1c-16.2-19.7-13.9-20.8,38.2-20.8
		c46.3,0,53.3,2.3,41.7,16.2c-10.4,12.7-6.9,41.7,17.4,129.7c34.7,130.9,59.1,185.3,84.5,196.9c10.4,4.6,49.8,11.6,88,15.1
		c62.5,5.8,71.8,10.4,95,46.3c15.1,22,26.6,44,26.6,48.6c0,13.9-119.3,12.7-156.3-1.2c-16.2-5.8-41.7-31.3-55.6-54.4l-25.5-44
		l-3.5,34.7c-2.3,19.7-12.7,44-22,55.6C477.7,1002.3,416.3,1005.8,365.4,987.3z"/>
	<path class="st0" d="M1144.8,978c-41.7-41.7-41.7-95-2.3-176c19.7-40.5,35.9-88,35.9-106.5c0-38.2-46.3-89.2-79.9-89.2
		c-49.8,0-77.6,66-44,106.5c25.5,32.4,54.4,33.6,84.5,3.5c23.2-23.2,27.8-24.3,27.8-8.1c0,29-42.9,95-62.5,95
		c-26.6,0-78.8-47.5-95-88c-20.8-49.8-20.8-101.9,1.2-142.4c45.2-89.2,154-47.5,195.7,76.4c24.3,71.8,23.2,118.1-4.6,188.8
		c-31.3,79.9-30.1,92.7,10.4,92.7c26.6,0,35.9,6.9,46.3,34.7l11.6,34.7h-52.1C1183,1000,1159.9,993.1,1144.8,978z"/>
	<path class="st0" d="M2461.6,981.5c-38.2-19.7-67.2-71.8-67.2-119.3c0-26.6-9.3-38.2-40.5-57.9c-112.3-66-113.5-206.1-2.3-257.1
		c57.9-25.5,121.6-27.8,176-5.8c34.7,15.1,39.4,15.1,44-2.3c3.5-13.9,6.9-9.3,13.9,12.7l8.1,32.4l13.9-26.6
		c15.1-30.1,62.5-40.5,98.4-20.8c27.8,13.9,61.4,74.1,83.4,148.2c8.1,26.6,20.8,54.4,30.1,61.4c25.5,22,18.5-22-13.9-91.5
		c-35.9-77.6-37.1-104.2-2.3-117c33.6-12.7,61.4,2.3,89.2,48.6c29,47.5,30.1,64.9,1.2,30.1c-12.7-15.1-25.5-24.3-30.1-19.7
		c-12.7,12.7,41.7,162.1,70.6,189.9l25.5,26.6l-76.4-6.9c-100.8-9.3-112.3-16.2-136.7-81.1c-40.5-111.2-49.8-130.9-63.7-130.9
		c-6.9,0-10.4,8.1-5.8,17.4c9.3,24.3-32.4,22-57.9-2.3c-19.7-19.7-20.8-19.7-11.6,2.3c10.4,26.6,53.3,147.1,53.3,150.6
		c0,1.2-27.8-25.5-61.4-59.1c-42.9-42.9-73-62.5-104.2-68.3c-110-20.8-186.5,59.1-125.1,134.3L2391,795l35.9-25.5
		c42.9-30.1,92.7-29,111.2,2.3c10.4,17.4,8.1,25.5-15.1,44c-15.1,11.6-37.1,22-48.6,22c-27.8,0-27.8,13.9,1.2,40.5
		c46.3,42.9,117-15.1,97.3-79.9c-4.6-12.7-4.6-22-1.2-17.4c6.9,5.8,66,156.3,66,166.8c0,3.5-17.4,16.2-37.1,29
		C2555.4,1003.5,2505.6,1005.8,2461.6,981.5z M2503.3,807.8c10.4-3.5,18.5-11.6,18.5-17.4c0-17.4-42.9-11.6-57.9,6.9
		c-11.6,13.9-11.6,17.4,3.5,17.4C2476.7,814.7,2492.9,811.2,2503.3,807.8z"/>
	<path class="st0" d="M594.7,847.1C576.2,817,518.3,619,518.3,585.4c0-32.4,26.6-49.8,69.5-45.2c35.9,4.6,40.5,10.4,70.6,90.3
		c38.2,101.9,42.9,135.5,10.4,83.4c-24.3-40.5-64.9-51-77.6-20.8c-8.1,22,16.2,117,39.4,154c13.9,22,12.7,25.5-2.3,25.5
		C619,872.6,604,861,594.7,847.1z"/>
	<path class="st0" d="M352.7,848.3c-13.9-8.1-18.5-19.7-13.9-35.9c10.4-30.1-35.9-151.7-69.5-183c-39.4-37.1-112.3-44-143.6-12.7
		c-68.3,68.3,32.4,155.2,113.5,98.4c25.5-18.5,25.5-18.5,10.4,5.8C231,751,172,780,126.8,780c-52.1,0-110-45.2-122.8-96.1
		c-23.2-92.7,55.6-166.8,166.8-156.3c103.1,10.4,145.9,61.4,200.4,238.6C401.3,862.2,397.8,874.9,352.7,848.3z"/>
	<path class="st0" d="M819.4,792.7c-48.6-25.5-92.7-96.1-92.7-149.4c0-46.3,53.3-106.5,95-106.5c42.9,0,93.8,38.2,123.9,93.8l29,51
		l-42.9-37.1c-48.6-41.7-92.7-48.6-133.2-19.7c-30.1,20.8-32.4,57.9-6.9,95c20.8,30.1,53.3,33.6,75.3,6.9
		c20.8-25.5-1.2-56.7-41.7-56.7c-27.8,1.2-29,0-10.4-13.9c33.6-24.3,73-17.4,110,18.5c41.7,42.9,45.2,96.1,8.1,121.6
		C899.3,820.5,868,819.3,819.4,792.7z"/>
	<path class="st0" d="M1363.7,792.7c-48.6-25.5-92.7-96.1-92.7-149.4c0-27.8,10.4-48.6,33.6-73c38.2-37.1,67.2-41.7,115.8-17.4
		c29,15.1,32.4,15.1,45.2-5.8c15.1-24.3,60.2-29,96.1-10.4c25.5,13.9,59.1,75.3,81.1,148.2c8.1,26.6,20.8,54.4,30.1,61.4
		c25.5,22,18.5-22-13.9-91.5c-35.9-77.6-37.1-104.2-2.3-117c33.6-12.7,61.4,2.3,89.2,48.6c29,47.5,30.1,64.9,1.2,30.1
		c-12.7-15.1-25.5-24.3-30.1-19.7c-12.7,12.7,41.7,162.1,70.6,189.9l25.5,26.6l-76.4-6.9c-100.8-9.3-112.3-16.2-136.7-81.1
		c-40.5-111.2-49.8-130.9-63.7-130.9c-6.9,0-10.4,8.1-5.8,17.4c4.6,11.6-1.2,17.4-17.4,17.4c-19.7,0-20.8,3.5-9.3,26.6
		c11.6,20.8,5.8,18.5-29-11.6c-47.5-42.9-91.5-48.6-132-19.7c-30.1,20.8-32.4,57.9-6.9,95c20.8,30.1,53.3,33.6,75.3,6.9
		c20.8-25.5-1.2-56.7-41.7-56.7c-27.8,1.2-29,0-10.4-13.9c33.6-24.3,73-17.4,110,18.5c41.7,42.9,45.2,96.1,8.1,121.6
		C1443.6,820.5,1412.3,819.3,1363.7,792.7z"/>
	<path class="st0" d="M3054.6,792.7c-48.6-25.5-92.7-96.1-92.7-149.4c0-46.3,53.3-106.5,95-106.5c42.9,0,93.8,38.2,123.9,93.8l29,51
		l-42.9-37.1c-48.6-41.7-92.7-48.6-133.2-19.7c-30.1,20.8-32.4,57.9-6.9,95c20.8,30.1,53.3,33.6,75.3,6.9
		c20.8-25.5-1.2-56.7-41.7-56.7c-27.8,1.2-29,0-10.4-13.9c33.6-24.3,73-17.4,110,18.5c41.7,42.9,45.2,96.1,8.1,121.6
		C3134.5,820.5,3103.2,819.3,3054.6,792.7z"/>
	<path class="st0" d="M3289.7,789.2c-34.7-39.4-42.9-56.7-22-48.6c30.1,11.6,22-29-22-120.4l-39.4-83.4h45.2
		c42.9,0,46.3,2.3,46.3,32.4c0,37.1,29,83.4,52.1,83.4c10.4,0,17.4-17.4,19.7-54.4c2.3-42.9,8.1-56.7,24.3-59.1
		c23.2-4.6,61.4,24.3,81.1,61.4c10.4,20.8,10.4,22-6.9,6.9c-38.2-30.1-33.6,17.4,8.1,110c23.2,48.6,41.7,90.3,41.7,91.5
		c0,2.3-17.4,2.3-37.1,1.2c-34.7-1.2-39.4-5.8-53.3-49.8c-9.3-33.6-19.7-47.5-30.1-42.9c-8.1,3.5-26.6-8.1-40.5-25.5
		c-29-37.1-29-35.9-5.8,33.6c15.1,44,16.2,59.1,4.6,71.8C3336,821.6,3317.5,819.3,3289.7,789.2z"/>
	<path class="st0" d="M3651,792.7c-99.6-61.4-155.2-199.2-100.8-247.8c30.1-27.8,52.1-24.3,86.9,10.4l29,29l4.6-26.6
		c5.8-42.9,54.4-35.9,86.9,12.7c29,42.9,37.1,78.8,10.4,40.5c-30.1-39.4-33.6-6.9-9.3,68.3c12.7,40.5,23.2,82.2,20.8,93.8
		C3772.6,818.2,3707.7,827.4,3651,792.7z M3772.6,762.6c0-2.3-15.1-12.7-33.6-22c-24.3-12.7-34.7-29-39.4-62.5
		c-9.3-55.6-47.5-93.8-75.3-76.4c-46.3,29-9.3,132,47.5,132c13.9,1.2,38.2,8.1,54.4,17.4C3756.4,768.4,3772.6,771.8,3772.6,762.6z"
		/>
	<path class="st0" d="M1911.5,795c-20.8-2.3-38.2-11.6-38.2-19.7c0-8.1-12.7-46.3-29-85.7c-16.2-39.4-29-84.5-29-99.6
		c0-57.9,64.9-83.4,125.1-48.6c31.3,17.4,71.8,74.1,71.8,101.9c0,33.6-34.7,57.9-71.8,51c-31.3-5.8-33.6-4.6-25.5,19.7
		c3.5,13.9,15.1,39.4,24.3,57.9c8.1,17.4,13.9,30.1,12.7,29C1949.7,800.8,1931.2,797.3,1911.5,795z M1942.8,653.7
		c0-23.2-29-59.1-47.5-59.1c-11.6,0-12.7,17.4-3.5,55.6C1901.1,682.7,1942.8,685,1942.8,653.7z"/>
</g>
</svg>
