<svg xmlns="http://www.w3.org/2000/svg" viewBox="0 0 886 1093" enable-background="new 0 0 886 1093"><defs><filter id="a" filterUnits="userSpaceOnUse" x="0" y="1067" width="885.7" height="24.7"><feFlood result="back" flood-color="#fff" flood-opacity="1"/><feBlend in="SourceGraphic" in2="back"/></filter></defs><mask maskUnits="userSpaceOnUse" x="0" y="1067" width="885.7" height="24.7" id="b"><g filter="url(#a)"><linearGradient id="c" gradientUnits="userSpaceOnUse" x1="0" y1="1079.394" x2="885.661" y2="1079.394"><stop offset="0" stop-color="#fff"/><stop offset=".817" stop-color="#2f2f2f"/><stop offset="1"/></linearGradient><path mask="url(#b)" fill="url(#c)" d="M885.7 1091.8h-815l-20.2-20.3H0v-4.5h52.4l20.2 20.3h813.1z"/></g></mask><linearGradient id="d" gradientUnits="userSpaceOnUse" x1="0" y1="1079.394" x2="885.661" y2="1079.394"><stop offset="0" stop-color="#f1ecf4"/><stop offset=".817" stop-color="#f3edf5"/><stop offset="1" stop-color="#f5edf4"/></linearGradient><path fill="url(#d)" d="M885.7 1091.8h-815l-20.2-20.3H0v-4.5h52.4l20.2 20.3h813.1z"/><defs><filter id="e" filterUnits="userSpaceOnUse" x="31.6" y="0" width="604.9" height="616.6"><feFlood result="back" flood-color="#fff" flood-opacity="1"/><feBlend in="SourceGraphic" in2="back"/></filter></defs><mask maskUnits="userSpaceOnUse" x="31.6" y="0" width="604.9" height="616.6" id="f"><g filter="url(#e)"><linearGradient id="g" gradientUnits="userSpaceOnUse" x1="31.637" y1="308.323" x2="636.567" y2="308.323"><stop offset="0" stop-color="#fff"/><stop offset=".817" stop-color="#2f2f2f"/><stop offset="1"/></linearGradient><path mask="url(#f)" fill="url(#g)" d="M36.1 616.6h-4.5V30.7h331.5L393.8 0h242.8v4.5H395.7L365 35.2H36.1z"/></g></mask><linearGradient id="h" gradientUnits="userSpaceOnUse" x1="31.637" y1="308.323" x2="636.567" y2="308.323"><stop offset="0" stop-color="#f1ecf4"/><stop offset=".817" stop-color="#f3edf5"/><stop offset="1" stop-color="#f5edf4"/></linearGradient><path fill="url(#h)" d="M36.1 616.6h-4.5V30.7h331.5L393.8 0h242.8v4.5H395.7L365 35.2H36.1z"/></svg>