<svg xmlns="http://www.w3.org/2000/svg" viewBox="0 0 753.79 147.64"><defs><style>.a{fill:#fff}</style></defs><path class="a" d="M465.7 81.3l7.87-19.84 7.81 19.84zm-1.32-42.86l-29.7 70.25h20.33l5-12.45h26.9l5.09 12.45h20.72l-29.68-70.25zm124.68 70.25h19.43V38.95h-19.4zm-25.48-34.74q0 8.48-5.31 13c-3.52 3-8.2 4.59-14 4.59h-7.89V56.08h7.91c5.79 0 10.47 1.55 14 4.64s5.31 7.43 5.31 13zM573 48.64a35.6 35.6 0 00-12.36-7.13 50.91 50.91 0 00-16.7-2.56h-26.89v69.75h26.5a49.83 49.83 0 0016.83-2.65 35.76 35.76 0 0012.52-7.32 31.39 31.39 0 007.76-11.11 35.76 35.76 0 002.7-14v-.2a35.78 35.78 0 00-2.64-13.9 30.5 30.5 0 00-7.67-10.91m148.66 19.34V82.1h13.75v8.47a20 20 0 01-11.21 2.89 19.41 19.41 0 01-7.64-1.45 18.27 18.27 0 01-6-4 17.33 17.33 0 01-4-6.12 21.08 21.08 0 01-1.4-7.77v-.17a19.92 19.92 0 011.39-7.47 19.43 19.43 0 013.8-6.08 17.18 17.18 0 015.63-4.08 16.44 16.44 0 017-1.5 22.88 22.88 0 019.11 1.69 30.93 30.93 0 017.72 4.89l11.36-13.65a44 44 0 00-12.3-7.48 42.86 42.86 0 00-16-2.69 39.86 39.86 0 00-15 2.79 35.36 35.36 0 00-11.86 7.73 36 36 0 00-10.61 25.75v.2a36.23 36.23 0 002.88 14.6 34.4 34.4 0 008 11.4 35.51 35.51 0 0012 7.43 41.93 41.93 0 0015.09 2.64 45.17 45.17 0 0017.13-3.09 50.24 50.24 0 0013.16-7.68v-31.4zm-60.09 7.88l-28.76-36.88h-18.07v69.75h19V70.44l29.85 38.25h17V38.95h-19zM410.31 64.15a7.5 7.5 0 01-2.69 6c-1.8 1.5-4.37 2.25-7.68 2.25h-12.76V55.69h12.66a12.77 12.77 0 017.67 2 7.22 7.22 0 012.8 6.23zm15.54 12.16c2.59-3.52 3.87-8 3.87-13.35v-.2q0-10.25-6.17-16.24a23.16 23.16 0 00-9.06-5.57 40.82 40.82 0 00-13.66-2h-33v69.75h19.35V87.57h8.48l14 21.12h22.33l-16.61-24.31a24.54 24.54 0 0010.47-8.07M301.58 55.88h20.93v52.81h19.33V55.88h20.92V38.95h-61.18zm-42.2 10.07l-16.64-27h-20.42v69.75h19V68.84l17.71 27.11h.4l17.79-27.31v40.06h19.22V38.95h-20.42zm-128.73 57.59V78.89l-38.68 22.33 38.68 22.32z"/><path class="a" d="M178.08 4.45A4.46 4.46 0 00173.62 0a4.41 4.41 0 00-2.17.56l-37.88 21.87-44.5 25.69-44.55-25.69L6.65.55A4.47 4.47 0 00.02 4.44v138.74a4.45 4.45 0 006.63 3.88l35-20.17V73.83a2.93 2.93 0 014.39-2.53L89.1 96.16l43.06-24.86a2.93 2.93 0 014.39 2.53v53.12l34.95 20.17a4.45 4.45 0 006.63-3.88V48.12z"/><path class="a" d="M47.45 123.54l38.68-22.32-38.68-22.33v44.65z"/></svg>