<svg version="1.1" id="Слой_1" xmlns="http://www.w3.org/2000/svg" x="0" y="0" viewBox="0 0 100 100" xml:space="preserve"><style>.st3{fill:#ebdaea}.st4{fill:#f5edf4}</style><linearGradient id="SVGID_1_" gradientUnits="userSpaceOnUse" x1="52.708" y1="3.276" x2="52.708" y2="96.06"><stop offset="0" stop-color="#bba2ca"/><stop offset="1" stop-color="#cda3ca"/></linearGradient><path d="M81.9 4.7H34.8c-.7 0-1.4.3-1.9.8L16 22.4c-.5.5-.8 1.2-.8 1.9v62.1c0 4.6 3.7 8.3 8.3 8.3h58.4c4.6 0 8.3-3.7 8.3-8.3V13c0-4.6-3.7-8.3-8.3-8.3zm0 0" fill="url(#SVGID_1_)"/><linearGradient id="SVGID_2_" gradientUnits="userSpaceOnUse" x1="71.449" y1="4.692" x2="71.449" y2="97.361"><stop offset="0" stop-color="#d6c7df"/><stop offset="1" stop-color="#e1c8df"/></linearGradient><path d="M81.9 4.7H52.7v90h29.2c4.6 0 8.3-3.7 8.3-8.3V13c0-4.6-3.7-8.3-8.3-8.3zm0 0" fill="url(#SVGID_2_)"/><linearGradient id="SVGID_3_" gradientUnits="userSpaceOnUse" x1="25.11" y1="4.609" x2="25.11" y2="97.278"><stop offset="0" stop-color="#d6c7df"/><stop offset="1" stop-color="#e1c8df"/></linearGradient><path d="M32 24.5c1.7 0 3-1.4 3-3V4.7h-.2c-.7 0-1.4.3-1.9.8L16 22.4c-.5.5-.8 1.2-.8 1.9v.2H32zm0 0" fill="url(#SVGID_3_)"/><path class="st3" d="M34.5 65.2l-.9 3.7c.1 0 2.2.5 5.5.5 3.5 0 8.4-.6 13.6-2.8v-4.1c-9.2 4.7-17.6 2.8-18.2 2.7z"/><path class="st4" d="M73.6 43.6l-3.5-1.5c-4.8 11.3-11.3 17.3-17.4 20.4v4.1c7.3-3.2 15.3-9.8 20.9-23z"/><path transform="rotate(-45.001 33.07 38.53)" class="st3" d="M30.4 30h5.3v17.1h-5.3z"/><path transform="rotate(-45.001 33.07 38.53)" class="st3" d="M24.5 35.9h17.1v5.3H24.5z"/><path transform="rotate(-45.001 71.623 77.838)" class="st4" d="M69 69.3h5.3v17.1H69z"/><path transform="rotate(-45.001 71.623 77.838)" class="st4" d="M63.1 75.2h17.1v5.3H63.1z"/><linearGradient id="SVGID_4_" gradientUnits="userSpaceOnUse" x1="34.806" y1="5.276" x2="34.806" y2="95.316"><stop offset="0" stop-color="#764595"/><stop offset="1" stop-color="#9a4795"/></linearGradient><circle cx="34.8" cy="68.6" r="9.1" fill="url(#SVGID_4_)"/><linearGradient id="SVGID_5_" gradientUnits="userSpaceOnUse" x1="72.603" y1="4.443" x2="72.603" y2="96.944"><stop offset="0" stop-color="#8457a0"/><stop offset="1" stop-color="#a459a0"/></linearGradient><circle cx="72.6" cy="44.4" r="9.1" fill="url(#SVGID_5_)"/><linearGradient id="SVGID_6_" gradientUnits="userSpaceOnUse" x1="58.735" y1="4.443" x2="58.735" y2="96.944"><stop offset="0" stop-color="#8457a0"/><stop offset="1" stop-color="#a459a0"/></linearGradient><path d="M68.5 4.7H52.7l-3.8 7.5 3.8 6.4h15.8V4.7zm0 0" fill="url(#SVGID_6_)"/><linearGradient id="SVGID_7_" gradientUnits="userSpaceOnUse" x1="44.799" y1="5.276" x2="44.799" y2="95.316"><stop offset="0" stop-color="#764595"/><stop offset="1" stop-color="#9a4795"/></linearGradient><path fill="url(#SVGID_7_)" d="M36.9 4.7h15.8v13.9H36.9z"/></svg>