<svg version="1.1" id="Слой_1" xmlns="http://www.w3.org/2000/svg" x="0" y="0" viewBox="0 0 100 100" xml:space="preserve"><style>.st7{fill:#ebdaea}</style><linearGradient id="SVGID_1_" gradientUnits="userSpaceOnUse" x1="50.73" y1="3.276" x2="50.73" y2="96.06"><stop offset="0" stop-color="#bba2ca"/><stop offset="1" stop-color="#cda3ca"/></linearGradient><path fill="url(#SVGID_1_)" d="M7.4 43.8L74.2 4.7l19.8 34-66.7 39z"/><linearGradient id="SVGID_2_" gradientUnits="userSpaceOnUse" x1="50.732" y1="4.609" x2="50.732" y2="97.278"><stop offset="0" stop-color="#d6c7df"/><stop offset="1" stop-color="#e1c8df"/></linearGradient><path d="M69 12.1L16.4 42.9c1.1 2 .4 4.5-1.6 5.7l11.9 20.3c2-1.2 4.6-.5 5.7 1.4L85 39.5c-1.1-2-.4-4.5 1.6-5.7L74.7 13.5c-2 1.2-4.5.6-5.7-1.4z" fill="url(#SVGID_2_)"/><linearGradient id="SVGID_3_" gradientUnits="userSpaceOnUse" x1="50.732" y1="3.276" x2="50.732" y2="96.06"><stop offset="0" stop-color="#bba2ca"/><stop offset="1" stop-color="#cda3ca"/></linearGradient><path d="M43.9 29.6c5.1-3 12.2-.2 15.9 6.2 3.7 6.4 2.7 14-2.4 16.9-5.1 3-12.2.2-15.9-6.2-3.7-6.3-2.6-13.9 2.4-16.9z" fill="url(#SVGID_3_)"/><linearGradient id="SVGID_4_" gradientUnits="userSpaceOnUse" x1="76.661" y1="3.276" x2="76.661" y2="96.06"><stop offset="0" stop-color="#bba2ca"/><stop offset="1" stop-color="#cda3ca"/></linearGradient><circle cx="76.7" cy="26" fill="url(#SVGID_4_)" r="2.4"/><linearGradient id="SVGID_5_" gradientUnits="userSpaceOnUse" x1="24.8" y1="3.276" x2="24.8" y2="96.06"><stop offset="0" stop-color="#bba2ca"/><stop offset="1" stop-color="#cda3ca"/></linearGradient><circle cx="24.8" cy="56.4" fill="url(#SVGID_5_)" r="2.4"/><linearGradient id="SVGID_6_" gradientUnits="userSpaceOnUse" x1="50.894" y1="4.609" x2="50.894" y2="97.278"><stop offset="0" stop-color="#d6c7df"/><stop offset="1" stop-color="#e1c8df"/></linearGradient><path d="M55.7 50.8l-1-1.6c-2.2 1-4.5 1.3-7 .8l.5-2.9c1.9.4 3.6.3 5-.3l-2.6-4.4c-1.9.6-3.5.8-4.7.6-1.2-.2-2.1-.9-2.9-2.2-.8-1.3-.9-2.6-.5-4s1.3-2.5 2.8-3.4l-.7-1.1 1.4-.8.7 1.1c1.7-.8 3.6-1.2 5.7-1.1l-.3 2.9c-1.4-.1-2.7.1-4 .6l2.5 4.2h.1c2-.6 3.6-.8 4.8-.6 1.2.2 2.2 1 3 2.3.8 1.3.9 2.7.5 4-.4 1.4-1.4 2.5-2.9 3.5L57 50l-1.3.8zM45.6 37.2c-.2.6-.1 1.1.2 1.6.3.5.7.8 1.1.9.5.1 1.2.1 2.2-.2l-2.3-3.9c-.6.6-1 1.1-1.2 1.6zm10.5 7.1c.2-.6.2-1.1-.1-1.7-.3-.5-.7-.8-1.2-1-.5-.1-1.3 0-2.4.2l2.4 4.1c.7-.4 1.1-1 1.3-1.6z" fill="url(#SVGID_6_)"/><path transform="rotate(-30.35 50.73 41.217)" fill="#f5edf4" d="M43.2 21.5h15v39.4h-15z"/><path transform="rotate(-30.35 45.706 44.163)" class="st7" d="M45.1 24.5h1.1v39.4h-1.1z"/><path transform="rotate(-30.35 55.755 38.272)" class="st7" d="M55.2 18.6h1.1V58h-1.1z"/><linearGradient id="SVGID_7_" gradientUnits="userSpaceOnUse" x1="50.999" y1="3.276" x2="50.999" y2="96.06"><stop offset="0" stop-color="#bba2ca"/><stop offset="1" stop-color="#cda3ca"/></linearGradient><path fill="url(#SVGID_7_)" d="M9.3 42.6l76-14.6 7.4 38.7-76 14.6z"/><linearGradient id="SVGID_8_" gradientUnits="userSpaceOnUse" x1="51.002" y1="4.609" x2="51.002" y2="97.278"><stop offset="0" stop-color="#d6c7df"/><stop offset="1" stop-color="#e1c8df"/></linearGradient><path d="M18.4 75.2l-5.3-27.6c1.5-.3 2.5-1.8 2.2-3.3l64.9-12.5c.3 1.5 1.8 2.5 3.3 2.2l5.3 27.6c-1.5.3-2.5 1.8-2.2 3.3L21.7 77.4c-.3-1.5-1.7-2.5-3.3-2.2z" fill="url(#SVGID_8_)"/><linearGradient id="SVGID_9_" gradientUnits="userSpaceOnUse" x1="51.002" y1="3.276" x2="51.002" y2="96.06"><stop offset="0" stop-color="#bba2ca"/><stop offset="1" stop-color="#cda3ca"/></linearGradient><path d="M48.5 41.5c5.8-1.1 11.6 3.9 13 11.2s-2.1 14.1-7.9 15.2C47.8 69 42 64 40.6 56.7s2.1-14.1 7.9-15.2z" fill="url(#SVGID_9_)"/><linearGradient id="SVGID_10_" gradientUnits="userSpaceOnUse" x1="80.506" y1="3.276" x2="80.506" y2="96.06"><stop offset="0" stop-color="#bba2ca"/><stop offset="1" stop-color="#cda3ca"/></linearGradient><circle cx="80.5" cy="49" fill="url(#SVGID_10_)" r="2.4"/><linearGradient id="SVGID_11_" gradientUnits="userSpaceOnUse" x1="21.494" y1="3.276" x2="21.494" y2="96.06"><stop offset="0" stop-color="#bba2ca"/><stop offset="1" stop-color="#cda3ca"/></linearGradient><circle cx="21.5" cy="60.3" fill="url(#SVGID_11_)" r="2.4"/><linearGradient id="SVGID_12_" gradientUnits="userSpaceOnUse" x1="51.304" y1="4.609" x2="51.304" y2="97.278"><stop offset="0" stop-color="#d6c7df"/><stop offset="1" stop-color="#e1c8df"/></linearGradient><path d="M52.5 65.4l-.4-1.9c-2.4.2-4.7-.3-6.8-1.6l1.4-2.6c1.7 1 3.3 1.4 4.9 1.4l-1-5c-2-.1-3.5-.4-4.6-1s-1.7-1.6-2-3.1 0-2.8.9-3.9 2.1-1.9 3.7-2.3l-.2-1.3 1.6-.3.3 1.3c1.9-.2 3.8.1 5.7.9l-1.2 2.7c-1.3-.6-2.6-.8-3.9-.8l.9 4.8h.1c2.1.1 3.6.4 4.7 1s1.8 1.7 2 3.2c.3 1.5 0 2.8-.9 4-.9 1.1-2.2 1.9-3.9 2.3l.4 1.8-1.7.4zm-5-16.2c-.4.5-.5 1-.4 1.6.1.6.4 1 .8 1.3.4.3 1.1.5 2.1.6l-.9-4.4c-.7.1-1.2.4-1.6.9zM55 59.4c.4-.5.5-1 .4-1.6-.1-.6-.4-1-.8-1.3-.4-.3-1.2-.5-2.3-.6l.9 4.6c.8-.3 1.4-.6 1.8-1.1z" fill="url(#SVGID_12_)"/><linearGradient id="SVGID_13_" gradientUnits="userSpaceOnUse" x1="19.757" y1="5.276" x2="19.757" y2="95.316"><stop offset="0" stop-color="#764595"/><stop offset="1" stop-color="#9a4795"/></linearGradient><path d="M35.5 88.1c0 3.6-7 6.6-15.7 6.6s-15.7-3-15.7-6.6v-5.4h31.4v5.4z" fill="url(#SVGID_13_)"/><linearGradient id="SVGID_14_" gradientUnits="userSpaceOnUse" x1="19.757" y1="4.443" x2="19.757" y2="96.944"><stop offset="0" stop-color="#8457a0"/><stop offset="1" stop-color="#a459a0"/></linearGradient><ellipse cx="19.8" cy="82.7" rx="15.7" ry="6.6" fill="url(#SVGID_14_)"/><linearGradient id="SVGID_15_" gradientUnits="userSpaceOnUse" x1="19.757" y1="5.276" x2="19.757" y2="95.316"><stop offset="0" stop-color="#764595"/><stop offset="1" stop-color="#9a4795"/></linearGradient><path d="M19.8 77.4C12.2 77.4 6 79.8 6 82.7S12.1 88 19.7 88s13.7-2.4 13.7-5.3c.1-2.9-6.1-5.3-13.6-5.3zm0 10c-6.7 0-12.2-2.1-12.2-4.7S13.1 78 19.8 78 32 80.1 32 82.7c-.1 2.6-5.5 4.7-12.2 4.7z" fill="url(#SVGID_15_)"/><linearGradient id="SVGID_16_" gradientUnits="userSpaceOnUse" x1="19.757" y1="5.276" x2="19.757" y2="95.316"><stop offset="0" stop-color="#764595"/><stop offset="1" stop-color="#9a4795"/></linearGradient><path d="M19.3 86.4v-.6c-2.1-.1-4-.4-5.6-1l1.7-.8c1.3.4 2.6.7 4 .8V83c-1.7-.2-3-.4-3.8-.6-.8-.3-1.2-.6-1.2-1.2s.5-.9 1.4-1.3c.9-.3 2.1-.5 3.6-.5V79h1.5v.5c1.7 0 3.3.3 4.8.7l-1.7.7c-1-.3-2.1-.4-3.3-.5v1.7h.1c1.8.2 3 .4 3.9.6.8.3 1.2.7 1.2 1.2s-.5.9-1.4 1.3c-.9.3-2.2.5-3.7.5v.6h-1.5zm-1.7-5.8c-.4.1-.6.3-.6.5s.2.4.5.5c.3.1.9.2 1.7.3v-1.5c-.6 0-1.2.1-1.6.2zm4.9 3.9c.4-.1.6-.3.6-.5s-.2-.4-.5-.5c-.3-.1-1-.2-1.9-.3v1.6c.7-.1 1.3-.1 1.8-.3z" fill="url(#SVGID_16_)"/><linearGradient id="SVGID_17_" gradientUnits="userSpaceOnUse" x1="19.757" y1="5.276" x2="19.757" y2="95.316"><stop offset="0" stop-color="#764595"/><stop offset="1" stop-color="#9a4795"/></linearGradient><path d="M35.5 81.5c0 3.6-7 6.6-15.7 6.6s-15.7-3-15.7-6.6v-5.4h31.4v5.4z" fill="url(#SVGID_17_)"/><linearGradient id="SVGID_18_" gradientUnits="userSpaceOnUse" x1="19.757" y1="4.443" x2="19.757" y2="96.944"><stop offset="0" stop-color="#8457a0"/><stop offset="1" stop-color="#a459a0"/></linearGradient><ellipse cx="19.8" cy="76.1" rx="15.7" ry="6.6" fill="url(#SVGID_18_)"/><linearGradient id="SVGID_19_" gradientUnits="userSpaceOnUse" x1="19.757" y1="5.276" x2="19.757" y2="95.316"><stop offset="0" stop-color="#764595"/><stop offset="1" stop-color="#9a4795"/></linearGradient><path d="M19.8 70.8C12.2 70.8 6 73.2 6 76.1s6.1 5.3 13.7 5.3 13.7-2.4 13.7-5.3c.1-2.9-6.1-5.3-13.6-5.3zm0 10c-6.7 0-12.2-2.1-12.2-4.7s5.5-4.7 12.2-4.7S32 73.5 32 76.1c-.1 2.6-5.5 4.7-12.2 4.7z" fill="url(#SVGID_19_)"/><linearGradient id="SVGID_20_" gradientUnits="userSpaceOnUse" x1="19.757" y1="5.276" x2="19.757" y2="95.316"><stop offset="0" stop-color="#764595"/><stop offset="1" stop-color="#9a4795"/></linearGradient><path d="M19.3 79.8v-.6c-2.1-.1-4-.4-5.6-1l1.7-.8c1.3.4 2.6.7 4 .8v-1.7c-1.7-.2-3-.4-3.8-.6-.8-.3-1.2-.6-1.2-1.2 0-.5.5-.9 1.4-1.3.9-.3 2.1-.5 3.6-.5v-.4h1.5v.5c1.7 0 3.3.3 4.8.7l-1.7.7c-1-.3-2.1-.4-3.3-.5v1.7h.1c1.8.2 3 .4 3.9.6.8.3 1.2.7 1.2 1.2s-.5.9-1.4 1.3c-.9.3-2.2.5-3.7.5v.6h-1.5zm-1.7-5.7c-.4.1-.6.3-.6.5s.2.4.5.5c.3.1.9.2 1.7.3v-1.5c-.6 0-1.2 0-1.6.2zm4.9 3.9c.4-.1.6-.3.6-.5s-.2-.4-.5-.5c-.3-.1-1-.2-1.9-.3v1.6c.7-.1 1.3-.2 1.8-.3z" fill="url(#SVGID_20_)"/><linearGradient id="SVGID_21_" gradientUnits="userSpaceOnUse" x1="19.757" y1="5.276" x2="19.757" y2="95.316"><stop offset="0" stop-color="#764595"/><stop offset="1" stop-color="#9a4795"/></linearGradient><path d="M35.5 75c0 3.6-7 6.6-15.7 6.6S4.1 78.6 4.1 75v-5.4h31.4V75z" fill="url(#SVGID_21_)"/><linearGradient id="SVGID_22_" gradientUnits="userSpaceOnUse" x1="19.757" y1="4.443" x2="19.757" y2="96.944"><stop offset="0" stop-color="#8457a0"/><stop offset="1" stop-color="#a459a0"/></linearGradient><ellipse cx="19.8" cy="69.6" rx="15.7" ry="6.6" fill="url(#SVGID_22_)"/><linearGradient id="SVGID_23_" gradientUnits="userSpaceOnUse" x1="19.757" y1="5.276" x2="19.757" y2="95.316"><stop offset="0" stop-color="#764595"/><stop offset="1" stop-color="#9a4795"/></linearGradient><path d="M19.8 64.3C12.2 64.3 6 66.6 6 69.6c0 2.9 6.1 5.3 13.7 5.3s13.7-2.4 13.7-5.3c.1-3-6.1-5.3-13.6-5.3zm0 10c-6.7 0-12.2-2.1-12.2-4.7s5.5-4.7 12.2-4.7S32 67 32 69.6c-.1 2.6-5.5 4.7-12.2 4.7z" fill="url(#SVGID_23_)"/><linearGradient id="SVGID_24_" gradientUnits="userSpaceOnUse" x1="19.757" y1="5.276" x2="19.757" y2="95.316"><stop offset="0" stop-color="#764595"/><stop offset="1" stop-color="#9a4795"/></linearGradient><path d="M19.3 73.2v-.6c-2.1-.1-4-.4-5.6-1l1.7-.8c1.3.4 2.6.7 4 .8v-1.7c-1.7-.2-3-.4-3.8-.6-.8-.3-1.2-.6-1.2-1.2s.5-.9 1.4-1.3c.9-.3 2.1-.5 3.6-.5v-.4h1.5v.5c1.7 0 3.3.3 4.8.7l-1.7.7c-1-.3-2.1-.4-3.3-.5V69h.1c1.8.2 3 .4 3.9.6.8.3 1.2.7 1.2 1.2s-.5.9-1.4 1.3c-.9.3-2.2.5-3.7.5v.6h-1.5zm-1.7-5.7c-.4.1-.6.3-.6.5s.2.4.5.5c.3.1.9.2 1.7.3v-1.5c-.6 0-1.2.1-1.6.2zm4.9 3.9c.4-.1.6-.3.6-.5s-.2-.4-.5-.5c-.3-.1-1-.2-1.9-.3v1.6c.7-.1 1.3-.2 1.8-.3z" fill="url(#SVGID_24_)"/><linearGradient id="SVGID_25_" gradientUnits="userSpaceOnUse" x1="19.757" y1="5.276" x2="19.757" y2="95.316"><stop offset="0" stop-color="#764595"/><stop offset="1" stop-color="#9a4795"/></linearGradient><path d="M35.5 68.4c0 3.6-7 6.6-15.7 6.6S4.1 72 4.1 68.4V63h31.4v5.4z" fill="url(#SVGID_25_)"/><linearGradient id="SVGID_26_" gradientUnits="userSpaceOnUse" x1="19.757" y1="4.443" x2="19.757" y2="96.944"><stop offset="0" stop-color="#8457a0"/><stop offset="1" stop-color="#a459a0"/></linearGradient><ellipse cx="19.8" cy="63" rx="15.7" ry="6.6" fill="url(#SVGID_26_)"/><linearGradient id="SVGID_27_" gradientUnits="userSpaceOnUse" x1="19.757" y1="5.276" x2="19.757" y2="95.316"><stop offset="0" stop-color="#764595"/><stop offset="1" stop-color="#9a4795"/></linearGradient><path d="M19.8 57.7C12.2 57.7 6 60.1 6 63s6.1 5.3 13.7 5.3 13.7-2.4 13.7-5.3c.1-2.9-6.1-5.3-13.6-5.3zm0 10C13 67.7 7.6 65.6 7.6 63s5.5-4.7 12.2-4.7S32 60.4 32 63c-.1 2.6-5.5 4.7-12.2 4.7z" fill="url(#SVGID_27_)"/><linearGradient id="SVGID_28_" gradientUnits="userSpaceOnUse" x1="19.757" y1="5.276" x2="19.757" y2="95.316"><stop offset="0" stop-color="#764595"/><stop offset="1" stop-color="#9a4795"/></linearGradient><path d="M19.3 66.7V66c-2.1-.1-4-.4-5.6-1l1.7-.8c1.3.4 2.6.7 4 .8v-1.7c-1.7-.2-3-.4-3.8-.6-.8-.3-1.2-.6-1.2-1.2s.5-.9 1.4-1.3c.9-.3 2.1-.5 3.6-.5v-.4h1.5v.5c1.7 0 3.3.3 4.8.7l-1.7.8c-1-.3-2.1-.4-3.3-.5v1.7h.1c1.8.2 3 .4 3.9.6.8.3 1.2.7 1.2 1.2s-.5.9-1.4 1.3c-.9.3-2.2.5-3.7.5v.6h-1.5zM17.6 61c-.4.1-.6.3-.6.5s.2.4.5.5c.3.1.9.2 1.7.3v-1.5c-.6-.1-1.2 0-1.6.2zm4.9 3.8c.4-.1.6-.3.6-.5s-.2-.4-.5-.5c-.3-.1-1-.2-1.9-.3v1.6c.7 0 1.3-.1 1.8-.3z" fill="url(#SVGID_28_)"/><linearGradient id="SVGID_29_" gradientUnits="userSpaceOnUse" x1="52.878" y1="5.276" x2="52.878" y2="95.316"><stop offset="0" stop-color="#764595"/><stop offset="1" stop-color="#9a4795"/></linearGradient><path d="M68.6 88.1c0 3.6-7 6.6-15.7 6.6s-15.7-3-15.7-6.6v-5.4h31.4v5.4z" fill="url(#SVGID_29_)"/><linearGradient id="SVGID_30_" gradientUnits="userSpaceOnUse" x1="52.877" y1="4.443" x2="52.877" y2="96.944"><stop offset="0" stop-color="#8457a0"/><stop offset="1" stop-color="#a459a0"/></linearGradient><ellipse cx="52.9" cy="82.7" rx="15.7" ry="6.6" fill="url(#SVGID_30_)"/><linearGradient id="SVGID_31_" gradientUnits="userSpaceOnUse" x1="52.878" y1="5.276" x2="52.878" y2="95.316"><stop offset="0" stop-color="#764595"/><stop offset="1" stop-color="#9a4795"/></linearGradient><path d="M52.9 77.4c-7.6 0-13.7 2.4-13.7 5.3S45.3 88 52.9 88s13.7-2.4 13.7-5.3-6.2-5.3-13.7-5.3zm0 10c-6.7 0-12.2-2.1-12.2-4.7S46.2 78 52.9 78s12.2 2.1 12.2 4.7-5.5 4.7-12.2 4.7z" fill="url(#SVGID_31_)"/><linearGradient id="SVGID_32_" gradientUnits="userSpaceOnUse" x1="52.878" y1="5.276" x2="52.878" y2="95.316"><stop offset="0" stop-color="#764595"/><stop offset="1" stop-color="#9a4795"/></linearGradient><path d="M52.4 86.4v-.6c-2.1-.1-4-.4-5.6-1l1.7-.8c1.3.4 2.6.7 4 .8V83c-1.7-.2-3-.4-3.8-.6-.8-.3-1.2-.6-1.2-1.2s.5-.9 1.4-1.3c.9-.3 2.1-.5 3.6-.5V79H54v.5c1.7 0 3.3.3 4.8.7l-1.5.8c-1-.3-2.1-.4-3.3-.5v1.7h.1c1.8.2 3 .4 3.9.6.8.3 1.2.7 1.2 1.2s-.5.9-1.4 1.3c-.9.3-2.2.5-3.7.5v.6h-1.7zm-1.6-5.8c-.4.1-.6.3-.6.5s.2.4.5.5c.3.1.9.2 1.7.3v-1.5c-.7 0-1.2.1-1.6.2zm4.8 3.9c.4-.1.6-.3.6-.5s-.2-.4-.5-.5c-.3-.1-1-.2-1.9-.3v1.6c.8-.1 1.3-.1 1.8-.3z" fill="url(#SVGID_32_)"/><linearGradient id="SVGID_33_" gradientUnits="userSpaceOnUse" x1="52.878" y1="5.276" x2="52.878" y2="95.316"><stop offset="0" stop-color="#764595"/><stop offset="1" stop-color="#9a4795"/></linearGradient><path d="M68.6 81.5c0 3.6-7 6.6-15.7 6.6s-15.7-3-15.7-6.6v-5.4h31.4v5.4z" fill="url(#SVGID_33_)"/><linearGradient id="SVGID_34_" gradientUnits="userSpaceOnUse" x1="52.877" y1="4.443" x2="52.877" y2="96.944"><stop offset="0" stop-color="#8457a0"/><stop offset="1" stop-color="#a459a0"/></linearGradient><ellipse cx="52.9" cy="76.1" rx="15.7" ry="6.6" fill="url(#SVGID_34_)"/><linearGradient id="SVGID_35_" gradientUnits="userSpaceOnUse" x1="52.878" y1="5.276" x2="52.878" y2="95.316"><stop offset="0" stop-color="#764595"/><stop offset="1" stop-color="#9a4795"/></linearGradient><path d="M52.9 70.8c-7.6 0-13.7 2.4-13.7 5.3s6.1 5.3 13.7 5.3 13.7-2.4 13.7-5.3-6.2-5.3-13.7-5.3zm0 10c-6.7 0-12.2-2.1-12.2-4.7s5.5-4.7 12.2-4.7 12.2 2.1 12.2 4.7-5.5 4.7-12.2 4.7z" fill="url(#SVGID_35_)"/><linearGradient id="SVGID_36_" gradientUnits="userSpaceOnUse" x1="52.878" y1="5.276" x2="52.878" y2="95.316"><stop offset="0" stop-color="#764595"/><stop offset="1" stop-color="#9a4795"/></linearGradient><path d="M52.4 79.8v-.6c-2.1-.1-4-.4-5.6-1l1.7-.8c1.3.4 2.6.7 4 .8v-1.7c-1.7-.2-3-.4-3.8-.6-.8-.3-1.2-.6-1.2-1.2 0-.5.5-.9 1.4-1.3.9-.3 2.1-.5 3.6-.5v-.4H54v.5c1.7 0 3.3.3 4.8.7l-1.5.8c-1-.3-2.1-.4-3.3-.5v1.7h.1c1.8.2 3 .4 3.9.6.8.3 1.2.7 1.2 1.2s-.5.9-1.4 1.3c-.9.3-2.2.5-3.7.5v.6h-1.7zm-1.6-5.7c-.4.1-.6.3-.6.5s.2.4.5.5c.3.1.9.2 1.7.3v-1.5c-.7 0-1.2 0-1.6.2zm4.8 3.9c.4-.1.6-.3.6-.5s-.2-.4-.5-.5c-.3-.1-1-.2-1.9-.3v1.6c.8-.1 1.3-.2 1.8-.3z" fill="url(#SVGID_36_)"/></svg>