<svg xmlns="http://www.w3.org/2000/svg" viewBox="0 0 100 100"><linearGradient id="a" gradientUnits="userSpaceOnUse" x1="22.831" y1="4.609" x2="22.831" y2="97.278"><stop offset="0" stop-color="#d6c7df"/><stop offset="1" stop-color="#e1c8df"/></linearGradient><path fill="url(#a)" d="M34.6 46.2l-17.1 20-6.5-5.4v33.9h23.6z"/><linearGradient id="b" gradientUnits="userSpaceOnUse" x1="16.929" y1="3.276" x2="16.929" y2="96.06"><stop offset="0" stop-color="#bba2ca"/><stop offset="1" stop-color="#cda3ca"/></linearGradient><path fill="url(#b)" d="M22.8 60l-5.3 6.2-6.5-5.4v33.9h11.8z"/><linearGradient id="c" gradientUnits="userSpaceOnUse" x1="51.13" y1="4.609" x2="51.13" y2="97.278"><stop offset="0" stop-color="#d6c7df"/><stop offset="1" stop-color="#e1c8df"/></linearGradient><path fill="url(#c)" d="M62.9 52.8l-7.3 8.4L39.3 45v49.7h23.6z"/><linearGradient id="d" gradientUnits="userSpaceOnUse" x1="45.228" y1="3.943" x2="45.228" y2="95.964"><stop offset="0" stop-color="#bba2ca"/><stop offset="1" stop-color="#cda3ca"/></linearGradient><path fill="url(#d)" d="M51.1 56.7L39.3 45v49.7h11.8z"/><linearGradient id="e" gradientUnits="userSpaceOnUse" x1="79.43" y1="4.609" x2="79.43" y2="97.278"><stop offset="0" stop-color="#d6c7df"/><stop offset="1" stop-color="#e1c8df"/></linearGradient><path fill="url(#e)" d="M91.2 32.6H80.5L67.6 47.3v47.4h23.6z"/><linearGradient id="f" gradientUnits="userSpaceOnUse" x1="73.528" y1="3.276" x2="73.528" y2="96.06"><stop offset="0" stop-color="#bba2ca"/><stop offset="1" stop-color="#cda3ca"/></linearGradient><path fill="url(#f)" d="M79.4 33.8L67.6 47.3v47.4h11.8z"/><linearGradient id="g" gradientUnits="userSpaceOnUse" x1="26.98" y1="4.443" x2="26.98" y2="96.944"><stop offset="0" stop-color="#8457a0"/><stop offset="1" stop-color="#a459a0"/></linearGradient><path fill="url(#g)" d="M42.9 32.8L17.5 62.4 11 56.8l25.9-30.1z"/><linearGradient id="h" gradientUnits="userSpaceOnUse" x1="69.827" y1="4.443" x2="69.827" y2="96.944"><stop offset="0" stop-color="#8457a0"/><stop offset="1" stop-color="#a459a0"/></linearGradient><path fill="url(#h)" d="M89.6 18L56.5 56.6 50 51l33.1-38.6z"/><linearGradient id="i" gradientUnits="userSpaceOnUse" x1="46.402" y1="4.443" x2="46.402" y2="96.944"><stop offset="0" stop-color="#8457a0"/><stop offset="1" stop-color="#a459a0"/></linearGradient><path fill="url(#i)" d="M55.6 57.6l-24-24.1 6-6 23.6 23.6z"/><linearGradient id="j" gradientUnits="userSpaceOnUse" x1="25.464" y1="5.276" x2="25.464" y2="95.316"><stop offset="0" stop-color="#764595"/><stop offset="1" stop-color="#9a4795"/></linearGradient><path fill="url(#j)" d="M39.9 29.8L14.3 59.6 11 56.8l25.9-30.1z"/><linearGradient id="k" gradientUnits="userSpaceOnUse" x1="69.375" y1="5.276" x2="69.375" y2="95.316"><stop offset="0" stop-color="#764595"/><stop offset="1" stop-color="#9a4795"/></linearGradient><path fill="url(#k)" d="M86.4 15.2l-31 36.1-3-3 30.7-35.9z"/><linearGradient id="l" gradientUnits="userSpaceOnUse" x1="46.397" y1="5.276" x2="46.397" y2="95.316"><stop offset="0" stop-color="#764595"/><stop offset="1" stop-color="#9a4795"/></linearGradient><path fill="url(#l)" d="M55.4 51.3L34.6 30.5l3-3L58.2 48z"/><linearGradient id="m" gradientUnits="userSpaceOnUse" x1="84.317" y1="5.276" x2="84.317" y2="95.316"><stop offset="0" stop-color="#764595"/><stop offset="1" stop-color="#9a4795"/></linearGradient><path fill="url(#m)" d="M72.9 13.7l8.5 7.4L95.7 4.7z"/><linearGradient id="n" gradientUnits="userSpaceOnUse" x1="88.531" y1="4.443" x2="88.531" y2="96.944"><stop offset="0" stop-color="#8457a0"/><stop offset="1" stop-color="#a459a0"/></linearGradient><path fill="url(#n)" d="M95.7 4.7L81.4 21.1l8.4 7.5z"/></svg>