<svg xmlns="http://www.w3.org/2000/svg" viewBox="0 0 100 100"><path d="M53.4 47.5c-10.9 0-19.8-8.9-19.8-19.8S42.5 7.9 53.4 7.9s19.8 8.9 19.8 19.8-8.9 19.8-19.8 19.8zm0 0" fill="#ebdaea"/><path d="M53.4 7.9v39.7c10.9 0 19.8-8.9 19.8-19.8 0-11-8.9-19.9-19.8-19.9zm0 0" fill="#f5edf4"/><linearGradient id="a" gradientUnits="userSpaceOnUse" x1="53.392" y1="3.276" x2="53.392" y2="96.06"><stop offset="0" stop-color="#bba2ca"/><stop offset="1" stop-color="#cda3ca"/></linearGradient><path d="M53.4 47.6C36.2 47.6 22 61.4 22 79v5.9c8.9 6.2 19.8 9.8 31.4 9.8 11.7 0 22.5-3.6 31.4-9.8V79c0-17.6-14.3-31.4-31.4-31.4zm0 0" fill="url(#a)"/><linearGradient id="b" gradientUnits="userSpaceOnUse" x1="69.105" y1="4.609" x2="69.105" y2="97.278"><stop offset="0" stop-color="#d6c7df"/><stop offset="1" stop-color="#e1c8df"/></linearGradient><path d="M84.8 84.9V79c0-17.6-14.3-31.4-31.4-31.4v47.1c11.7 0 22.5-3.6 31.4-9.8zm0 0" fill="url(#b)"/><linearGradient id="c" gradientUnits="userSpaceOnUse" x1="50.761" y1="3.276" x2="50.761" y2="96.06"><stop offset="0" stop-color="#bba2ca"/><stop offset="1" stop-color="#cda3ca"/></linearGradient><path d="M71.5 15.2C70.3 9.2 65 4.7 58.6 4.7H32.4c-1.5 0-2.6 1.2-2.6 2.6v5.3c0 4.3 2.1 8.1 5.3 10.5 2.2 1.6 4.9 2.6 7.9 2.6h3c2.5 0 5-.5 7.4-1.4 2.3-.9 4.5-2.2 6.3-3.8h12.1v-2.6c0-1-.1-1.9-.3-2.7z" fill="url(#c)"/><linearGradient id="d" gradientUnits="userSpaceOnUse" x1="62.592" y1="4.609" x2="62.592" y2="97.278"><stop offset="0" stop-color="#d6c7df"/><stop offset="1" stop-color="#e1c8df"/></linearGradient><path d="M59.7 20.5c-1.8 1.7-4 2.9-6.3 3.8V4.7h5.3c6.4 0 11.7 4.5 12.9 10.5.2.8.3 1.7.3 2.6v2.6H59.7z" fill="url(#d)"/><linearGradient id="e" gradientUnits="userSpaceOnUse" x1="68.505" y1="4.609" x2="68.505" y2="97.278"><stop offset="0" stop-color="#d6c7df"/><stop offset="1" stop-color="#e1c8df"/></linearGradient><path d="M79.5 42.1H59.3c-1 0-1.8-.8-1.8-1.8s.8-1.8 1.8-1.8h16.6v-9h-2.7v-3.6h6.3v16.2z" fill="url(#e)"/><linearGradient id="f" gradientUnits="userSpaceOnUse" x1="51.283" y1="5.276" x2="51.283" y2="95.316"><stop offset="0" stop-color="#764595"/><stop offset="1" stop-color="#9a4795"/></linearGradient><path d="M50.4 81.3c-.8.7-1.2 1.7-1.2 2.8 0 1.1.4 2.1 1.2 2.8.8.8 1.8 1.2 3 1.2v-7.9c-1.2 0-2.2.4-3 1.1z" fill="url(#f)"/><linearGradient id="g" gradientUnits="userSpaceOnUse" x1="51.349" y1="5.276" x2="51.349" y2="95.316"><stop offset="0" stop-color="#764595"/><stop offset="1" stop-color="#9a4795"/></linearGradient><path fill="url(#g)" d="M49.3 57.1l1.4 20h2.7v-20z"/><linearGradient id="h" gradientUnits="userSpaceOnUse" x1="55.497" y1="4.443" x2="55.497" y2="96.944"><stop offset="0" stop-color="#8457a0"/><stop offset="1" stop-color="#a459a0"/></linearGradient><path d="M56.4 81.3c-.8-.7-1.8-1.1-3-1.1v7.9c1.2 0 2.2-.4 3-1.2.8-.8 1.2-1.7 1.2-2.8 0-1.1-.4-2-1.2-2.8z" fill="url(#h)"/><linearGradient id="i" gradientUnits="userSpaceOnUse" x1="55.431" y1="4.443" x2="55.431" y2="96.944"><stop offset="0" stop-color="#8457a0"/><stop offset="1" stop-color="#a459a0"/></linearGradient><path fill="url(#i)" d="M57.5 57.1h-4.1v20h2.7z"/></svg>