<svg version="1.1" id="Слой_1" xmlns="http://www.w3.org/2000/svg" x="0" y="0" viewBox="0 0 100 100" xml:space="preserve"><style>.st6{fill:#f5edf4}.st12{fill:#ebdaea}</style><linearGradient id="SVGID_1_" gradientUnits="userSpaceOnUse" x1="64.148" y1="4.609" x2="64.148" y2="97.278"><stop offset="0" stop-color="#d6c7df"/><stop offset="1" stop-color="#e1c8df"/></linearGradient><path d="M50.5 13.6s14-1.3 21.9 8.4S77 44.3 77 44.3l-6.2 17.5H50.5V13.6z" fill="url(#SVGID_1_)"/><linearGradient id="SVGID_2_" gradientUnits="userSpaceOnUse" x1="72.151" y1="3.276" x2="72.151" y2="96.06"><stop offset="0" stop-color="#bba2ca"/><stop offset="1" stop-color="#cda3ca"/></linearGradient><path d="M89.3 80.6s8.7-11 5-22.9-16.1-16-16.1-16l-20.5-3.5-1.2 4.8-7.4 11.4 40.2 26.2z" fill="url(#SVGID_2_)"/><linearGradient id="SVGID_3_" gradientUnits="userSpaceOnUse" x1="70.447" y1="4.609" x2="70.447" y2="97.278"><stop offset="0" stop-color="#d6c7df"/><stop offset="1" stop-color="#e1c8df"/></linearGradient><path d="M77.7 40.1s-.7 13.2-9.2 21.3-4-11.2-4-11.2l2.8-10.5 10.4.4z" fill="url(#SVGID_3_)"/><linearGradient id="SVGID_4_" gradientUnits="userSpaceOnUse" x1="79.859" y1="4.609" x2="79.859" y2="97.278"><stop offset="0" stop-color="#d6c7df"/><stop offset="1" stop-color="#e1c8df"/></linearGradient><path fill="url(#SVGID_4_)" d="M92.5 71.6l-4.9-7.3-2.5 2.5-1.4-3.5-16.4 2.9 18.1 8.4z"/><linearGradient id="SVGID_5_" gradientUnits="userSpaceOnUse" x1="63.635" y1="3.276" x2="63.635" y2="96.06"><stop offset="0" stop-color="#bba2ca"/><stop offset="1" stop-color="#cda3ca"/></linearGradient><path d="M89.3 80.6s-6.6 12.4-19 13.8S49.2 86 49.2 86L37.9 71.3l3.7-5.6L49 54.3l40.3 26.3z" fill="url(#SVGID_5_)"/><linearGradient id="SVGID_6_" gradientUnits="userSpaceOnUse" x1="74.774" y1="4.609" x2="74.774" y2="97.278"><stop offset="0" stop-color="#d6c7df"/><stop offset="1" stop-color="#e1c8df"/></linearGradient><path fill="url(#SVGID_6_)" d="M82.3 87.1l-8.7-1.5 1.4-3.3-3.8.2-3.9-16.3 14.9 13.2z"/><path class="st6" d="M80.6 68l-13.3-1.8L74.1 78z"/><path class="st6" d="M80.6 68l-13.3-1.8 10.1 6.7z"/><ellipse transform="rotate(-56.825 85.816 78.343)" class="st6" cx="85.8" cy="78.3" rx="10.2" ry="13.1"/><linearGradient id="SVGID_7_" gradientUnits="userSpaceOnUse" x1="36.59" y1="4.609" x2="36.59" y2="97.278"><stop offset="0" stop-color="#d6c7df"/><stop offset="1" stop-color="#e1c8df"/></linearGradient><path d="M10.7 79.9s6.1 12.6 18.4 14.5c12.3 1.9 21.5-7.5 21.5-7.5l11.8-14.3-3.4-5.7-7-11.7-41.3 24.7z" fill="url(#SVGID_7_)"/><linearGradient id="SVGID_8_" gradientUnits="userSpaceOnUse" x1="51.646" y1="3.276" x2="51.646" y2="96.06"><stop offset="0" stop-color="#bba2ca"/><stop offset="1" stop-color="#cda3ca"/></linearGradient><path d="M60.1 93s-12.7-3.8-18.5-14 11.8-1.2 11.8-1.2l9.5 5.1L60.1 93z" fill="url(#SVGID_8_)"/><linearGradient id="SVGID_9_" gradientUnits="userSpaceOnUse" x1="25.431" y1="3.276" x2="25.431" y2="96.06"><stop offset="0" stop-color="#bba2ca"/><stop offset="1" stop-color="#cda3ca"/></linearGradient><path fill="url(#SVGID_9_)" d="M17.5 86.7l8.7-1.2-1.2-3.3 3.8.3 4.6-16.1L17.9 79z"/><linearGradient id="SVGID_10_" gradientUnits="userSpaceOnUse" x1="28.75" y1="4.609" x2="28.75" y2="97.278"><stop offset="0" stop-color="#d6c7df"/><stop offset="1" stop-color="#e1c8df"/></linearGradient><path d="M10.7 79.9S2.5 68.6 6.6 56.8s16.8-15.4 16.8-15.4l18.2-3.7 3.4 5.8 7 11.7-41.3 24.7z" fill="url(#SVGID_10_)"/><linearGradient id="SVGID_11_" gradientUnits="userSpaceOnUse" x1="20.663" y1="3.276" x2="20.663" y2="96.06"><stop offset="0" stop-color="#bba2ca"/><stop offset="1" stop-color="#cda3ca"/></linearGradient><path fill="url(#SVGID_11_)" d="M8 70.8l5.2-7.1 2.3 2.5 1.5-3.4 16.4 3.6-18.5 7.7z"/><path class="st12" d="M25.9 77.6l7.5-11.2-13.6 1z"/><ellipse transform="rotate(-30.876 14.324 77.765)" class="st12" cx="14.3" cy="77.8" rx="13.1" ry="10.2"/><linearGradient id="SVGID_12_" gradientUnits="userSpaceOnUse" x1="36.945" y1="3.276" x2="36.945" y2="96.06"><stop offset="0" stop-color="#bba2ca"/><stop offset="1" stop-color="#cda3ca"/></linearGradient><path d="M50.5 13.6s-14-1.3-21.9 8.4S24 44.3 24 44.3l6.2 17.5h20.3V13.6z" fill="url(#SVGID_12_)"/><linearGradient id="SVGID_13_" gradientUnits="userSpaceOnUse" x1="33.106" y1="4.609" x2="33.106" y2="97.278"><stop offset="0" stop-color="#d6c7df"/><stop offset="1" stop-color="#e1c8df"/></linearGradient><path d="M19.8 42.9s12-5.6 23.1-1.9-8 8.8-8 8.8l-10.5 2.5-4.6-9.4z" fill="url(#SVGID_13_)"/><linearGradient id="SVGID_14_" gradientUnits="userSpaceOnUse" x1="44.188" y1="4.609" x2="44.188" y2="97.278"><stop offset="0" stop-color="#d6c7df"/><stop offset="1" stop-color="#e1c8df"/></linearGradient><path fill="url(#SVGID_14_)" d="M41.3 15.9L37.8 24l3.5.7-2.2 3.1L50.5 40l-2.8-19.8z"/><linearGradient id="SVGID_15_" gradientUnits="userSpaceOnUse" x1="56.905" y1="3.276" x2="56.905" y2="96.06"><stop offset="0" stop-color="#bba2ca"/><stop offset="1" stop-color="#cda3ca"/></linearGradient><path fill="url(#SVGID_15_)" d="M59.8 15.9l3.5 8.1-3.5.7 2.2 3.1L50.5 40l2.9-19.8z"/><path class="st6" d="M44.7 27.8L50.5 40l6.2-12.2z"/><path class="st12" d="M44.7 27.8L50.5 40V27.8z"/><ellipse class="st6" cx="50.5" cy="17.8" rx="10.2" ry="13.1"/><path class="st12" d="M50.5 4.7c-5.6 0-10.2 5.9-10.2 13.1 0 7.2 4.6 13.1 10.2 13.1V4.7z"/><linearGradient id="SVGID_16_" gradientUnits="userSpaceOnUse" x1="50.547" y1="4.943" x2="50.547" y2="93.943"><stop offset="0" stop-color="#8457a0"/><stop offset="1" stop-color="#a459a0"/></linearGradient><circle cx="50.5" cy="57.2" r="21.3" fill="url(#SVGID_16_)"/><linearGradient id="SVGID_17_" gradientUnits="userSpaceOnUse" x1="39.893" y1="3.609" x2="39.893" y2="94.24"><stop offset="0" stop-color="#764595"/><stop offset="1" stop-color="#9a4795"/></linearGradient><path d="M50.5 35.9c-11.8 0-21.3 9.5-21.3 21.3s9.5 21.3 21.3 21.3V35.9z" fill="url(#SVGID_17_)"/><linearGradient id="SVGID_18_" gradientUnits="userSpaceOnUse" x1="50.547" y1="4.609" x2="50.547" y2="97.278"><stop offset="0" stop-color="#d6c7df"/><stop offset="1" stop-color="#e1c8df"/></linearGradient><path fill="url(#SVGID_18_)" d="M48.4 43.5l-7.2 16.1v3.7h11.1v7.3l4.9-.6v-6.6h2.7v-4.5h-2.6v-10l-4.1.9-.7 9h-5.9l7.2-15.3z"/><linearGradient id="SVGID_19_" gradientUnits="userSpaceOnUse" x1="52.16" y1="4.609" x2="52.16" y2="97.278"><stop offset="0" stop-color="#d6c7df"/><stop offset="1" stop-color="#e1c8df"/></linearGradient><path fill="url(#SVGID_19_)" d="M53.8 43.5h-3.3v6.9z"/><linearGradient id="SVGID_20_" gradientUnits="userSpaceOnUse" x1="45.894" y1="3.276" x2="45.894" y2="96.06"><stop offset="0" stop-color="#bba2ca"/><stop offset="1" stop-color="#cda3ca"/></linearGradient><path fill="url(#SVGID_20_)" d="M46.6 58.8l3.9-8.4v-6.9h-2.1l-7.2 16.1v3.7h9.3v-4.5z"/></svg>