<svg version="1.1" id="Слой_1" xmlns="http://www.w3.org/2000/svg" x="0" y="0" viewBox="0 0 100 100" xml:space="preserve"><style>.st2{fill:#ebdaea}.st3{fill:#f5edf4}</style><linearGradient id="SVGID_1_" gradientUnits="userSpaceOnUse" x1="49.682" y1="4.609" x2="49.682" y2="97.278"><stop offset="0" stop-color="#d6c7df"/><stop offset="1" stop-color="#e1c8df"/></linearGradient><path fill="url(#SVGID_1_)" d="M9.6 88.5h80.2v6.2H9.6z"/><linearGradient id="SVGID_2_" gradientUnits="userSpaceOnUse" x1="29.641" y1="3.276" x2="29.641" y2="96.06"><stop offset="0" stop-color="#bba2ca"/><stop offset="1" stop-color="#cda3ca"/></linearGradient><path fill="url(#SVGID_2_)" d="M9.6 88.5h40.1v6.2H9.6z"/><path class="st2" d="M19.1 4.7v10.2h-4.2c-.5 0-.9.5-.9 1.1v58.5c0 .6.4 1.1.9 1.1h4.2v10.2h1.3v-81h-1.3z"/><path class="st3" d="M25.8 14.9h-4.2V4.7h-1.3v81h1.3V75.5h4.2c.5 0 .9-.5.9-1.1V16c0-.6-.4-1.1-.9-1.1z"/><linearGradient id="SVGID_3_" gradientUnits="userSpaceOnUse" x1="36.599" y1="3.276" x2="36.599" y2="96.06"><stop offset="0" stop-color="#bba2ca"/><stop offset="1" stop-color="#cda3ca"/></linearGradient><path d="M38.5 4.7v4.7h-4.2c-.5 0-.9.4-.9.8v45.4c0 .5.4.8.9.8h4.2v29.2h1.3v-81h-1.3z" fill="url(#SVGID_3_)"/><linearGradient id="SVGID_4_" gradientUnits="userSpaceOnUse" x1="42.948" y1="4.609" x2="42.948" y2="97.278"><stop offset="0" stop-color="#d6c7df"/><stop offset="1" stop-color="#e1c8df"/></linearGradient><path d="M45.2 9.4H41V4.7h-1.3v81H41V56.5h4.2c.5 0 .9-.4.9-.8V10.3c0-.5-.4-.9-.9-.9z" fill="url(#SVGID_4_)"/><linearGradient id="SVGID_5_" gradientUnits="userSpaceOnUse" x1="56.013" y1="5.276" x2="56.013" y2="95.316"><stop offset="0" stop-color="#764595"/><stop offset="1" stop-color="#9a4795"/></linearGradient><path d="M57.9 4.7v4.7h-4.2c-.5 0-.9.3-.9.6v33.1c0 .3.4.6.9.6h4.2v42h1.3v-81h-1.3z" fill="url(#SVGID_5_)"/><linearGradient id="SVGID_6_" gradientUnits="userSpaceOnUse" x1="62.361" y1="4.443" x2="62.361" y2="96.944"><stop offset="0" stop-color="#8457a0"/><stop offset="1" stop-color="#a459a0"/></linearGradient><path d="M64.6 9.4h-4.2V4.7h-1.3v81h1.3v-42h4.2c.5 0 .9-.3.9-.6v-33c0-.4-.4-.7-.9-.7z" fill="url(#SVGID_6_)"/><path class="st2" d="M77.3 4.7v36.1h-4.2c-.5 0-.9.3-.9.6v33.4c0 .3.4.6.9.6h4.2v10.2h1.3v-81h-1.3z"/><path class="st3" d="M84 40.8h-4.2V4.7h-1.3v81h1.3V75.5H84c.5 0 .9-.3.9-.6V41.4c0-.3-.4-.6-.9-.6z"/></svg>